<?xml version="1.0" standalone="no"?>
<!DOCTYPE svg PUBLIC "-//W3C//DTD SVG 20010904//EN"
 "http://www.w3.org/TR/2001/REC-SVG-20010904/DTD/svg10.dtd">
<svg version="1.0" xmlns="http://www.w3.org/2000/svg"
 width="512.000000pt" height="512.000000pt" viewBox="0 0 512.000000 512.000000"
 preserveAspectRatio="xMidYMid meet">

<g transform="translate(0.000000,512.000000) scale(0.100000,-0.100000)"
fill="#000000" stroke="none">
<path d="M988 5099 c-23 -12 -46 -35 -58 -59 -19 -38 -20 -58 -20 -632 l0
-593 -271 -270 c-149 -149 -284 -290 -300 -314 l-29 -45 0 -1382 c0 -898 4
-1400 10 -1435 34 -180 179 -325 359 -359 74 -14 3688 -14 3762 0 180 34 325
179 359 359 6 35 10 537 10 1433 0 1343 -1 1380 -19 1416 -11 20 -146 163
-300 317 l-281 280 0 593 c0 574 -1 594 -20 632 -13 26 -34 47 -60 60 -39 20
-55 20 -1572 20 -1507 -1 -1534 -1 -1570 -21z m2922 -1381 l0 -1103 -407 -407
-408 -408 -535 0 -535 0 -407 407 -408 408 0 1102 0 1103 1350 0 1350 0 0
-1102z m-3000 -570 l0 -233 -117 117 -118 118 115 115 c63 63 116 115 117 115
2 0 3 -105 3 -232z m3417 -115 l-117 -118 0 235 0 235 117 -118 118 -117 -118
-117z m-3150 -1950 l-567 -568 0 1135 0 1135 567 -568 568 -567 -568 -567z
m3333 565 l0 -1133 -567 567 -568 568 565 565 c311 311 566 565 567 565 2 0 3
-510 3 -1132z m-815 -748 l600 -600 -1735 0 -1735 0 600 600 600 600 535 0
535 0 600 -600z"/>
<path d="M2390 4505 c-592 -104 -979 -671 -855 -1252 72 -343 323 -637 645
-760 230 -87 483 -93 715 -18 176 57 228 101 228 189 0 82 -61 146 -139 146
-21 0 -83 -16 -139 -35 -129 -44 -227 -59 -335 -51 -186 14 -329 78 -466 208
-226 215 -294 543 -174 828 91 214 291 383 520 441 31 8 105 14 170 14 65 0
139 -6 170 -14 269 -68 485 -280 556 -546 8 -27 17 -86 20 -130 6 -70 4 -86
-15 -123 -55 -107 -212 -107 -260 1 -11 23 -23 77 -29 119 -25 203 -173 356
-376 390 -289 48 -556 -219 -508 -508 54 -328 418 -487 696 -303 l46 31 46
-31 c282 -187 649 -21 697 315 27 183 -43 439 -171 634 -224 340 -647 524
-1042 455z m240 -906 c79 -44 100 -139 49 -214 -62 -90 -199 -82 -249 15 -25
50 -25 90 0 140 37 73 128 100 200 59z"/>
</g>
</svg>
