<?xml version="1.0" standalone="no"?>
<!DOCTYPE svg PUBLIC "-//W3C//DTD SVG 20010904//EN"
 "http://www.w3.org/TR/2001/REC-SVG-20010904/DTD/svg10.dtd">
<svg version="1.0" xmlns="http://www.w3.org/2000/svg"
 width="512.000000pt" height="512.000000pt" viewBox="0 0 512.000000 512.000000"
 preserveAspectRatio="xMidYMid meet">

<g transform="translate(0.000000,512.000000) scale(0.100000,-0.100000)"
fill="#000000" stroke="none">
<path d="M910 5102 c-105 -28 -154 -63 -340 -251 -264 -265 -376 -427 -471
-683 -167 -454 -113 -990 141 -1403 100 -163 177 -244 1239 -1306 1158 -1158
1148 -1149 1371 -1268 446 -237 985 -251 1445 -36 203 94 332 192 565 425 143
143 182 187 208 240 44 91 59 187 43 279 -26 142 -41 162 -410 534 -185 186
-362 358 -394 382 -145 110 -322 124 -491 38 -32 -16 -115 -89 -242 -214 -228
-224 -258 -243 -389 -243 -152 0 -112 -34 -867 722 -756 756 -723 717 -723
867 1 131 17 157 239 385 120 122 201 214 218 246 56 104 71 220 43 327 -32
124 -46 141 -429 523 -386 386 -416 410 -537 439 -82 19 -138 18 -219 -3z
m167 -292 c32 -12 697 -670 719 -712 34 -64 11 -128 -75 -213 l-61 -60 -422
423 -423 422 60 61 c83 85 133 104 202 79z m335 -1249 c-48 -63 -87 -152 -106
-244 -31 -148 -14 -275 55 -417 l41 -85 707 -706 706 -707 85 -41 c223 -108
460 -89 661 54 l46 33 422 -422 422 -423 -53 -39 c-127 -94 -229 -147 -379
-198 -396 -132 -841 -61 -1188 189 -96 69 -2204 2178 -2279 2280 -226 308
-307 726 -212 1100 39 151 122 329 211 449 l51 69 423 -423 423 -423 -36 -46z
m2686 -1765 c15 -8 181 -169 369 -358 300 -302 342 -348 349 -381 11 -62 -9
-105 -81 -177 l-65 -65 -425 425 -425 425 43 44 c89 92 169 122 235 87z"/>
</g>
</svg>
