<?xml version="1.0" standalone="no"?>
<!DOCTYPE svg PUBLIC "-//W3C//DTD SVG 20010904//EN"
 "http://www.w3.org/TR/2001/REC-SVG-20010904/DTD/svg10.dtd">
<svg version="1.0" xmlns="http://www.w3.org/2000/svg"
 width="512.000000pt" height="512.000000pt" viewBox="0 0 512.000000 512.000000"
 preserveAspectRatio="xMidYMid meet">

<g transform="translate(0.000000,512.000000) scale(0.100000,-0.100000)"
fill="#000000" stroke="none">
<path d="M361 5109 c-172 -34 -318 -182 -351 -358 -14 -74 -14 -4308 0 -4382
34 -180 179 -325 359 -359 74 -14 2508 -14 2582 0 180 34 325 179 359 359 6
31 10 233 10 485 l0 431 258 258 257 257 431 0 c252 0 454 4 485 10 180 34
325 179 359 359 14 72 14 1290 0 1362 -34 180 -179 325 -359 359 -33 6 -316
10 -742 10 l-689 0 0 399 c0 229 -4 421 -10 452 -34 180 -179 325 -359 359
-67 12 -2525 12 -2590 -1z m2579 -309 c60 -31 80 -78 80 -190 l0 -90 -1360 0
-1360 0 0 90 c0 110 20 159 78 189 36 20 62 20 1280 21 1226 0 1243 0 1282
-20z m80 -740 l0 -160 -89 0 c-48 0 -112 -5 -142 -10 -180 -34 -325 -179 -359
-359 -14 -72 -14 -1290 0 -1362 34 -180 179 -325 359 -359 30 -5 94 -10 142
-10 l89 0 0 -300 0 -300 -1360 0 -1360 0 0 1510 0 1510 1360 0 1360 0 0 -160z
m1720 -480 c26 -13 47 -34 60 -60 19 -38 20 -58 20 -670 0 -612 -1 -632 -20
-670 -13 -26 -34 -47 -60 -60 -38 -19 -58 -20 -520 -20 -423 0 -485 -2 -513
-16 -18 -9 -112 -96 -209 -192 l-178 -176 0 132 c0 158 -14 198 -80 232 -35
18 -59 20 -220 20 -210 0 -244 10 -280 80 -19 38 -20 58 -20 670 0 612 1 632
20 670 12 24 35 47 58 59 36 20 61 20 970 21 916 0 934 0 972 -20z m-1720
-2920 c0 -222 -2 -244 -20 -280 -13 -26 -34 -47 -60 -60 -39 -20 -56 -20
-1280 -20 -1224 0 -1241 0 -1280 20 -26 13 -47 34 -60 60 -18 36 -20 58 -20
280 l0 240 1360 0 1360 0 0 -240z"/>
<path d="M3098 3279 c-43 -22 -78 -81 -78 -129 0 -50 35 -107 80 -130 38 -19
58 -20 670 -20 612 0 632 1 670 20 45 23 80 80 80 130 0 50 -35 107 -80 130
-38 19 -57 20 -672 20 -610 -1 -634 -2 -670 -21z"/>
<path d="M3098 2679 c-43 -22 -78 -81 -78 -129 0 -50 35 -107 80 -130 37 -19
58 -20 370 -20 312 0 333 1 370 20 45 23 80 80 80 130 0 50 -35 107 -80 130
-37 19 -58 20 -372 20 -312 -1 -335 -2 -370 -21z"/>
</g>
</svg>
