<?xml version="1.0" encoding="utf-8"?>
<!-- Svg Vector Icons : http://www.onlinewebfonts.com/icon -->
<!DOCTYPE svg PUBLIC "-//W3C//DTD SVG 1.1//EN" "http://www.w3.org/Graphics/SVG/1.1/DTD/svg11.dtd">
<svg version="1.1" xmlns="http://www.w3.org/2000/svg" xmlns:xlink="http://www.w3.org/1999/xlink" x="0px" y="0px" 
viewBox="0 0 1000 1000" enable-background="new 0 0 1000 1000" xml:space="preserve" style="fill: #FFFFFF;">
<metadata> Svg Vector Icons : http://www.onlinewebfonts.com/icon </metadata>
<g><path d="M515.3,205.5c54,0,98.2-43.7,98.2-97.8S569.3,10,515.3,10c-54,0-98.2,43.7-98.2,97.8C417,161.3,460.7,205.5,515.3,205.5z M515.3,48.8c32.4,0,58.9,26.5,58.9,58.5c0,32.4-26.5,58.5-58.9,58.5c-32.4,0-58.9-26.5-58.9-58.5C455.8,75.3,482.3,48.8,515.3,48.8z M905.8,267.4l-75.6-130.2c-8.3-14.2-32.4-14.2-40.8,0l-75.6,130.2l0,0c-3.9,7.4-3.9,16.2,0,23.6c4.4,7.4,11.8,11.8,20.1,11.8h151.3c8.3,0,16.2-4.4,20.1-11.8C909.7,283.6,909.7,274.8,905.8,267.4z M760.9,263.5l48.6-83.5l48.6,83.5H760.9z M312.4,271.8c0-6.4-2.5-12.3-6.9-16.7l-86.9-86c-8.8-8.8-24.6-8.8-33.4,0l-86.9,86.5c-4.4,4.4-6.9,10.3-6.9,16.7c0,6.4,2.5,12.3,6.9,16.7l86.9,86.5c4.4,4.4,10.3,6.9,16.7,6.9s12.3-2.5,16.7-6.9l86.9-86.5C309.9,284.1,312.4,278.2,312.4,271.8z M201.9,336.2L137,271.8l64.8-64.4l64.8,64.4L201.9,336.2z M696,493.9c-14.7-2-43.7,10.3-50.6,14.2c-89.4,51.6-176.4,51.6-265.8,0c-6.4-3.9-13.3-7.4-19.6-11.3c-18.2-9.8-37.3-12.3-53.5-6.9c-14.2,4.9-25.1,14.7-31.4,29c-10.3,23.1-4.9,55,5.4,73.2c12.3,21.6,33.4,37.8,54,52.1c28.5,19.2,41.3,47.2,39.8,85c-1,24.1-6.4,51.1-15.2,80.1c-5.4,17.2-14.2,34.4-23.1,52.1c-3.4,6.4-6.4,12.8-9.8,19.2c-20.1,40.8-10.3,77.1,26.5,98.7c20.6,12.3,60.9,24.6,98.7-27c17.2-23.1,34.4-46.7,53.1-71.7l7.9-10.3l9.8,13.3c18.7,25.5,35.9,48.6,53.5,71.7c17.2,23.1,38.3,34.9,59.9,34.9c11.8,0,24.1-3.4,36.4-10.8c35.9-21.1,46.2-56.5,28.5-94.8l-13.3-28.5c-10.3-22.1-21.6-45.2-30.9-68.3c-18.7-43.7-4.4-107.6,31.4-140c4.9-4.4,10.3-8.8,15.7-13.3c15.7-12.8,31.9-26.5,43.7-44.2c12.8-19.7,15.7-57.5,0.5-75.2C732.4,498.3,716.7,496.3,696,493.9z M714.2,570c-8.4,12.8-21.6,23.6-35.9,35.4c-5.9,4.9-11.3,9.3-17.2,14.2c-48.6,43.7-66.8,124.3-41.3,184.2c10.3,23.6,21.1,46.7,31.9,69.3l13.3,28.5c9.3,20.1,5.4,33.9-12.8,44.7c-12.3,7.4-26.5,10.8-45.2-13.8c-17.2-23.1-34.4-46.2-53.1-71.7l-41.8-56L473,857.9c-18.7,25.5-36.4,48.6-53.1,72.2c-20.6,28.5-35.4,23.6-47.2,16.2c-13.3-7.9-25.1-19.6-11.3-48.1c2.9-6.4,6.4-12.3,9.3-18.7c9.3-18.2,19.2-37.3,25.5-58c10.3-32.4,16.2-62.4,17.2-89.9c2-51.6-17.2-91.4-57-118.9c-16.2-10.8-33.9-24.1-41.8-38.8c-5.9-10.8-7.9-29.5-3.9-38.3c2.5-5.9,5.9-7.4,7.9-7.9c5.4-2,13.8-0.5,22.1,4.4c6.4,3.4,12.8,6.9,19.2,10.8c101.2,58.5,203.9,58.5,305.1,0c5.4-2.9,22.6-8.8,26.5-9.3c18.2,2.5,20.6,2.9,25.5,7.9C719.6,544.9,719.1,562.6,714.2,570z M509.4,512c1,0,2,0,2.9,0c64.8,0,114.9-47.2,116.4-111c1.5-65.8-46.7-116.9-112-118.4c-32.4-0.5-61.9,10.3-84.5,31.4c-21.6,20.6-33.9,49.1-34.9,80.1C395.9,459.5,444,510.6,509.4,512z M459.3,342.1c14.2-13.3,32.9-20.6,54-20.6c1,0,1.5,0,2.5,0c43.2,1,75.2,34.9,73.7,78.6c-1,42.2-33.9,73.2-77.1,73.2c-0.5,0-1.5,0-2,0l0,0c-43.7-1-74.7-33.9-73.7-78.6C437.2,374,445,355.3,459.3,342.1z"/></g>
</svg>