<?xml version="1.0" standalone="no"?>
<!DOCTYPE svg PUBLIC "-//W3C//DTD SVG 20010904//EN"
 "http://www.w3.org/TR/2001/REC-SVG-20010904/DTD/svg10.dtd">
<svg version="1.0" xmlns="http://www.w3.org/2000/svg"
 width="512.000000pt" height="512.000000pt" viewBox="0 0 512.000000 512.000000"
 preserveAspectRatio="xMidYMid meet">

<g transform="translate(0.000000,512.000000) scale(0.100000,-0.100000)"
fill="#000000" stroke="none">
<path d="M2320 5109 c-407 -38 -801 -175 -1145 -397 -283 -182 -588 -490 -769
-776 -196 -309 -320 -642 -378 -1011 -31 -201 -31 -560 0 -755 45 -275 116
-498 237 -745 131 -267 270 -461 484 -676 215 -214 409 -353 676 -484 247
-121 470 -192 745 -237 195 -31 554 -31 755 0 567 89 1046 331 1445 731 215
216 356 411 486 671 127 256 203 506 245 810 19 136 17 515 -4 653 -126 830
-606 1519 -1337 1917 -432 236 -957 345 -1440 299z m80 -753 l0 -433 -37 -7
c-21 -3 -64 -6 -96 -6 -53 0 -199 -13 -289 -25 l-38 -5 -30 67 c-17 37 -49 89
-71 116 l-41 48 17 42 c73 185 273 447 421 553 55 39 137 83 157 84 4 0 7
-195 7 -434z m389 399 c227 -120 453 -433 600 -833 l31 -84 -27 6 c-78 17
-315 47 -443 57 -80 5 -169 12 -197 15 l-53 5 0 435 c0 310 3 434 11 434 6 0
41 -16 78 -35z m-1084 -186 c-40 -61 -100 -164 -132 -229 -53 -108 -61 -119
-85 -120 -105 -1 -221 -53 -303 -135 -95 -95 -140 -212 -134 -346 l4 -70 -90
-38 c-176 -74 -357 -175 -479 -268 -46 -35 -48 -35 -41 -12 17 57 115 261 167
349 227 384 545 683 941 882 92 46 201 95 219 97 3 1 -27 -49 -67 -110z m1695
85 c91 -37 231 -108 329 -166 289 -174 585 -470 759 -759 77 -130 192 -369
192 -401 0 -5 -24 9 -52 30 -191 140 -432 259 -718 352 l-145 48 -37 108
c-118 342 -217 549 -360 747 -26 37 -44 67 -40 67 5 0 37 -12 72 -26z m-1830
-754 c45 -23 80 -80 80 -130 0 -76 -74 -150 -150 -150 -50 0 -107 35 -130 80
-25 50 -25 90 0 140 37 73 124 99 200 60z m830 -740 l0 -460 -450 0 -450 0 6
78 c20 291 48 530 62 543 4 3 27 11 52 18 108 31 193 93 254 185 l34 52 124
13 c68 8 170 17 228 21 58 4 113 8 123 8 16 2 17 -26 17 -458z m612 434 c135
-14 260 -32 431 -65 54 -10 68 -17 72 -33 29 -125 85 -466 85 -522 0 -6 -19
-19 -42 -30 -57 -26 -158 -128 -188 -191 l-25 -53 -322 0 -323 0 0 459 0 459
83 -4 c45 -3 148 -12 229 -20z m950 -219 c430 -172 753 -428 822 -652 l7 -23
-298 0 -298 0 -25 51 c-37 79 -109 152 -194 195 l-74 38 -12 101 c-11 94 -34
246 -46 308 -3 15 -3 27 -1 27 3 0 56 -20 119 -45z m-2710 21 c15 -11 16 -20
8 -72 -15 -91 -38 -299 -45 -404 -3 -52 -8 -123 -11 -157 l-6 -63 -434 0
c-292 0 -434 3 -434 10 0 17 50 110 90 170 52 76 198 213 303 283 109 74 274
160 397 209 108 42 109 42 132 24z m2586 -715 c43 -22 82 -84 82 -131 0 -74
-76 -150 -150 -150 -50 0 -107 35 -130 80 -25 50 -25 90 0 140 37 72 124 99
198 61z m-2634 -343 c3 -35 10 -126 16 -203 5 -77 19 -203 30 -279 12 -76 20
-144 18 -151 -4 -16 -198 58 -348 133 -199 99 -350 209 -459 335 -54 63 -131
189 -131 216 0 8 124 11 434 11 l434 0 6 -62z m1196 -251 l0 -312 -52 -25
c-64 -30 -166 -131 -192 -188 -11 -23 -24 -42 -30 -42 -38 0 -272 34 -388 56
l-137 26 -11 52 c-36 166 -69 429 -84 664 l-5 82 449 0 450 0 0 -313z m970
261 c30 -64 131 -166 188 -192 23 -11 42 -24 42 -31 0 -33 -33 -257 -56 -380
l-26 -141 -146 -27 c-127 -23 -363 -57 -398 -57 -6 0 -19 19 -30 42 -26 57
-128 158 -191 188 l-53 25 0 312 0 313 323 0 322 0 25 -52z m1415 30 c-14 -47
-85 -156 -146 -221 -104 -114 -251 -218 -451 -318 -96 -48 -315 -139 -336
-139 -5 0 -1 48 9 108 9 59 23 153 29 208 l12 101 61 29 c77 36 173 130 206
202 l24 52 299 0 299 0 -6 -22z m-4050 -783 c142 -76 245 -119 444 -185 l174
-57 28 -95 c71 -241 201 -523 324 -707 84 -127 88 -124 -70 -55 -494 217 -922
645 -1139 1139 -69 158 -71 154 41 79 54 -36 143 -90 198 -119z m3945 183 c0
-14 -52 -134 -95 -219 -204 -406 -512 -733 -905 -958 -100 -58 -337 -167 -345
-160 -2 2 30 54 71 114 124 182 253 461 329 711 l27 91 122 38 c255 79 509
196 681 314 90 61 115 77 115 69z m-2060 -298 c45 -23 80 -80 80 -130 0 -74
-76 -150 -150 -150 -74 0 -150 76 -150 150 0 48 35 107 78 129 48 26 93 26
142 1z m-765 -229 c77 -11 167 -22 200 -26 l60 -6 39 -75 c43 -85 116 -157
195 -194 l51 -25 0 -298 0 -298 -22 7 c-134 41 -295 188 -431 392 -57 86 -162
298 -212 428 -51 130 -49 125 -32 119 6 -2 75 -13 152 -24z m1565 19 c0 -19
-62 -173 -115 -285 -111 -237 -257 -435 -405 -550 -53 -41 -169 -105 -190
-105 -7 0 -10 100 -10 298 l0 297 51 25 c79 37 152 109 195 194 l39 75 60 6
c82 9 338 45 350 50 18 6 25 5 25 -5z"/>
</g>
</svg>
