<?xml version="1.0" encoding="utf-8"?>
<!-- Svg Vector Icons : http://www.onlinewebfonts.com/icon -->
<!DOCTYPE svg PUBLIC "-//W3C//DTD SVG 1.1//EN" "http://www.w3.org/Graphics/SVG/1.1/DTD/svg11.dtd">
<svg version="1.1" style="fill: #FFFFFF" xmlns="http://www.w3.org/2000/svg" xmlns:xlink="http://www.w3.org/1999/xlink" x="0px" y="0px" viewBox="0 0 1000 1000" enable-background="new 0 0 1000 1000" xml:space="preserve">
<metadata> Svg Vector Icons : http://www.onlinewebfonts.com/icon </metadata>
<g><g><path d="M928.8,224.4h-245v-61.3c0-33.7-27.6-61.3-61.3-61.3h-245c-33.7,0-61.3,27.6-61.3,61.3v61.3h-245c-33.7,0-61.3,27.6-61.3,61.3v551.3c0,33.7,27.6,61.3,61.3,61.3h857.5c33.7,0,61.3-27.6,61.3-61.3V285.6C990,251.9,962.4,224.4,928.8,224.4z M377.5,163.2c0,0,0.1-0.1,0.1-0.1h244.8c0,0,0.1,0.1,0.1,0.1v61.1h-245V163.2z M928.8,469.4H806.3v91.9c0,16.8-13.8,30.6-30.6,30.6h-61.3c-16.8,0-30.6-13.8-30.6-30.6v-91.9H316.3v91.9c0,16.8-13.8,30.6-30.6,30.6h-61.3c-16.8,0-30.6-13.8-30.6-30.6v-91.9H71.3v-61.3h857.5V469.4z"/></g></g>
</svg>