<?xml version="1.0" encoding="iso-8859-1"?>
<!-- Generator: Adobe Illustrator 16.0.0, SVG Export Plug-In . SVG Version: 6.00 Build 0)  -->
<!DOCTYPE svg PUBLIC "-//W3C//DTD SVG 1.1//EN" "http://www.w3.org/Graphics/SVG/1.1/DTD/svg11.dtd">
<svg version="1.1" id="Capa_1" xmlns="http://www.w3.org/2000/svg" xmlns:xlink="http://www.w3.org/1999/xlink" x="0px" y="0px"
	 width="449.39px" height="449.39px" viewBox="0 0 449.39 449.39" style="enable-background:new 0 0 449.39 449.39;"
	 xml:space="preserve">
<g>
	<path style="fill:#FFFFFF;" d="M227.459,0.072l-0.012-0.009h-0.271C226.347,0.057,225.533,0,224.701,0
		C100.797,0,0,100.797,0,224.695C0,348.593,100.797,449.39,224.695,449.39c123.897,0,224.695-100.797,224.695-224.695
		C449.39,101.724,350.08,1.564,227.459,0.072z M233.478,157.014c30.591-1.152,58.323-8.163,82.733-18.104
		c9.436,22.969,15.959,48.76,17.034,77.001h-99.768V157.014z M215.912,215.912h-99.768c1.078-28.264,7.577-54.055,17.005-77.019
		c24.416,9.952,52.163,16.968,82.763,18.121V215.912z M98.639,215.912H17.771c1.878-44.786,18.063-85.907,44.072-118.966
		c15.084,11.896,33.633,24.339,55.279,34.837C106.981,156.439,99.745,184.68,98.639,215.912z M98.584,233.478
		c1.2,31.117,8.331,59.232,18.598,84.101c-21.671,10.498-40.238,22.958-55.333,34.856C35.84,319.379,19.65,278.261,17.777,233.478
		H98.584z M116.167,233.478h99.745v58.907c-30.428,1.138-58.038,8.073-82.348,17.937
		C124.043,287.41,117.385,261.691,116.167,233.478z M233.478,233.478h99.745c-1.219,28.201-7.892,53.932-17.417,76.844
		c-24.308-9.863-51.908-16.793-82.334-17.937v-58.907H233.478z M350.805,233.478h80.813c-1.876,44.783-18.069,85.907-44.075,118.969
		c-15.106-11.916-33.701-24.381-55.384-34.891C342.429,292.682,349.599,264.573,350.805,233.478z M350.829,215.912
		c-1.069-31.137-8.103-59.313-18.292-84.252c21.534-10.472,39.986-22.864,55.007-34.714c26.012,33.059,42.199,74.18,44.075,118.961
		h-80.79V215.912z M376.096,83.606c-13.929,10.938-30.969,22.343-50.73,32.007C303.5,70.76,272.383,37.997,251.604,19.37
		C300.481,25.746,344.042,49.255,376.096,83.606z M308.956,122.909c-22.38,9.04-47.688,15.404-75.478,16.539V27.069
		C252.175,43.125,285.895,76.27,308.956,122.909z M215.912,27.052v112.39c-27.807-1.135-53.124-7.51-75.515-16.565
		C163.46,76.201,197.206,43.077,215.912,27.052z M197.995,19.347c-12.628,11.539-27.286,26.78-38.942,41.501
		c-11.588,14.638-24.09,33.133-34.729,54.904c-19.89-9.697-37.027-21.153-51.033-32.146
		C105.394,49.201,149.028,25.68,197.995,19.347z M73.285,365.781c14.023-11.007,31.189-22.482,51.116-32.181
		c22.26,45.265,53.961,78.131,75.023,96.635C149.872,424.163,105.706,400.512,73.285,365.781z M140.877,326.304
		c22.271-8.943,47.434-15.232,75.035-16.354v111.284C197.329,405.292,163.918,372.477,140.877,326.304z M233.478,421.235V309.951
		c27.595,1.127,52.748,7.41,75.021,16.354C285.449,372.449,252.055,405.281,233.478,421.235z M250.186,430.201
		c20.619-18.264,52.389-51.188,74.746-96.623c19.944,9.709,37.133,21.191,51.164,32.203
		C343.727,400.478,299.641,424.105,250.186,430.201z"/>
</g>
</svg>
